<?xml version="1.0" encoding="utf-8"?>
<svg xmlns="http://www.w3.org/2000/svg" xmlns:bx="https://boxy-svg.com" viewBox="50 -50 512 512"><defs><bx:export><bx:file format="svg"/></bx:export></defs><path d="M 56.481 53.32 C 55.515 25.58 77.128 0 106.342 0 L 405.695 0 C 434.909 0 456.522 25.58 455.556 53.32 C 454.628 79.967 455.833 114.485 464.52 142.63 C 473.235 170.862 487.931 188.707 512 191 L 512 217 C 487.931 219.293 473.235 237.138 464.52 265.37 C 455.833 293.515 454.628 328.033 455.556 354.681 C 456.522 382.42 434.909 408 405.695 408 L 106.342 408 C 77.128 408 55.515 382.42 56.482 354.681 C 57.409 328.033 56.204 293.515 47.516 265.37 C 38.802 237.138 24.07 219.293 0 217 L 0 191 C 24.069 188.707 38.802 170.862 47.516 142.63 C 56.204 114.485 57.409 79.967 56.481 53.32 L 56.481 53.32 Z" style="transform-box: fill-box; transform-origin: 50% 50%; fill: rgb(79, 180, 71);" transform="matrix(0, 1, -1, 0, -0.00002, -0.000001)"/><path d="M 137.391 197.138 L 132.989 197.138 L 131.239 192.585 L 123.227 192.585 L 121.573 197.138 L 117.28 197.138 L 125.087 177.095 L 129.366 177.095 Z M 129.94 189.208 L 127.178 181.771 L 124.471 189.208 Z M 139.509 197.138 L 139.509 193.296 L 143.351 193.296 L 143.351 197.138 Z M 145.58 197.138 L 145.58 193.488 L 156.107 180.486 L 146.77 180.486 L 146.77 177.095 L 161.439 177.095 L 161.439 180.24 L 150.461 193.761 L 161.863 193.761 L 161.863 197.138 Z" transform="matrix(8.00479, 0, 0, 8.18772, -864.862697, -1333.262003)" style="fill: rgb(255, 255, 255); text-wrap-mode: nowrap;"/></svg>